<svg xmlns="http://www.w3.org/2000/svg" viewBox="0 0 1217.7 732.3"><defs><style>.cls-1{fill:#ff4713;}.cls-2{fill:#ff8300;}.cls-3{fill:#fff;}.cls-4{fill:#ff9e18;}.cls-5{fill:none;stroke:#ff8300;stroke-miterlimit:10;stroke-width:20px;}.cls-6{opacity:0.75;}</style></defs><title>nephoslogo</title><g id="Layer_9" data-name="Layer 9"><path class="cls-1" d="M703.36,396.45l-70.91-70.92L625,318.1l-15.48-15.48-7.43-7.44-70.92-70.91a23.3,23.3,0,0,0-32.95,0L166.92,555.58l-32.36,32.36a23.3,23.3,0,0,0,0,32.95L306.74,793.07a23.3,23.3,0,0,0,32.95,0l32.36-32.36L703.36,429.39A23.29,23.29,0,0,0,703.36,396.45Z" transform="translate(-127.74 -67.59)"/><path class="cls-2" d="M631.56,275.21l7.43,7.44a21.46,21.46,0,1,0-30.35-30.35l7.44,7.43Z" transform="translate(-127.74 -67.59)"/><path class="cls-2" d="M703.36,360.11l-70.91-70.92L625,281.76l-15.48-15.48-7.43-7.44-70.92-70.91a23.3,23.3,0,0,0-32.95,0L166.92,519.24,134.56,551.6a23.3,23.3,0,0,0,0,32.95L306.74,756.73a23.3,23.3,0,0,0,32.95,0l32.36-32.36L703.36,393.06A23.3,23.3,0,0,0,703.36,360.11Z" transform="translate(-127.74 -67.59)"/><rect class="cls-3" x="486.09" y="267.73" width="71.31" height="71.31" rx="4.59" transform="translate(-189.45 390.19) rotate(-45)"/><rect class="cls-3" x="419.93" y="333.89" width="71.31" height="71.31" rx="4.59" transform="translate(-255.61 362.79) rotate(-45)"/><rect class="cls-3" x="368.25" y="394.05" width="54.34" height="71.31" rx="4.59" transform="translate(-315.77 337.87) rotate(-45)"/><rect class="cls-3" x="315.58" y="447.69" width="52.41" height="71.31" rx="4.59" transform="translate(-369.41 315.65) rotate(-45)"/><rect class="cls-3" x="236.78" y="510.19" width="123.76" height="164.87" rx="4.59" transform="translate(-459.31 317.17) rotate(-45)"/><rect class="cls-3" x="381.74" y="513.85" width="52.41" height="71.31" rx="4.59" transform="translate(-396.81 381.81) rotate(-45)"/><rect class="cls-3" x="434.41" y="460.21" width="54.34" height="71.31" rx="4.59" transform="translate(-343.17 404.03) rotate(-45)"/><rect class="cls-3" x="486.09" y="400.05" width="71.31" height="71.31" rx="4.59" transform="translate(-283.01 428.95) rotate(-45)"/><rect class="cls-3" x="552.25" y="333.89" width="71.31" height="71.31" rx="4.59" transform="translate(-216.85 456.35) rotate(-45)"/><polygon class="cls-2" points="408.34 250.13 396.82 207.12 365.33 238.6 408.34 250.13"/><rect class="cls-2" x="570.39" y="339.34" width="15.33" height="42.95" rx="2.23" transform="translate(296.71 -370.66) rotate(45)"/><rect class="cls-2" x="588.96" y="357.92" width="15.33" height="42.95" rx="2.58" transform="translate(315.28 -378.35) rotate(45)"/><circle class="cls-2" cx="327.85" cy="301.95" r="22.76"/><rect class="cls-2" x="502.9" y="416.86" width="37.68" height="37.68" rx="5.57" transform="translate(333.17 -308.91) rotate(45)"/><path class="cls-2" d="M375.88,423.05a2.25,2.25,0,0,0,.67,1.66L399.84,448a2.37,2.37,0,0,0,3.32,0,2.22,2.22,0,0,0,.68-1.66V423.05a2.22,2.22,0,0,0-.68-1.66,2.26,2.26,0,0,0-1.66-.68H378.22a2.28,2.28,0,0,0-1.67.68A2.25,2.25,0,0,0,375.88,423.05Z" transform="translate(-127.74 -67.59)"/><path class="cls-2" d="M481.93,501.14a2.25,2.25,0,0,0-.67-1.66L458,476.19a2.25,2.25,0,0,0-1.66-.67,2.29,2.29,0,0,0-2.34,2.34v23.28a2.29,2.29,0,0,0,2.34,2.34h23.28a2.29,2.29,0,0,0,2.34-2.34Z" transform="translate(-127.74 -67.59)"/><path class="cls-2" d="M415,569.32a2.25,2.25,0,0,0,.67-1.66V544.37a2.31,2.31,0,0,0-2.34-2.34H390.08a2.28,2.28,0,0,0-1.67.68,2.25,2.25,0,0,0-.67,1.66,2.27,2.27,0,0,0,.67,1.67l23.29,23.28a2.38,2.38,0,0,0,3.33,0Z" transform="translate(-127.74 -67.59)"/><path class="cls-2" d="M333.61,464.62a2.26,2.26,0,0,0-.68,1.66v23.29a2.32,2.32,0,0,0,2.34,2.34h23.29a2.32,2.32,0,0,0,2.34-2.34,2.29,2.29,0,0,0-.68-1.67l-23.28-23.28a2.38,2.38,0,0,0-3.33,0Z" transform="translate(-127.74 -67.59)"/><path id="C" class="cls-2" d="M276.76,534,240,570.73a17.34,17.34,0,0,0,0,24.52l12.26,12.27a17.34,17.34,0,0,0,24.52,0l9.2-9.2L273.7,586.06l-9.2,9.19L252.24,583,289,546.21l12.27,12.26-9.2,9.2,12.26,12.26,9.2-9.2a17.34,17.34,0,0,0,0-24.52L301.29,534A17.33,17.33,0,0,0,276.76,534Z" transform="translate(-127.74 -67.59)"/><path id="C-2" data-name="C" class="cls-2" d="M320.39,577.57l-36.78,36.79a17.34,17.34,0,0,0,0,24.52l12.26,12.26a17.32,17.32,0,0,0,24.52,0l9.2-9.19-12.26-12.26-9.2,9.19-12.26-12.26,36.78-36.78,12.27,12.26-9.2,9.19L348,623.56l9.2-9.2a17.34,17.34,0,0,0,0-24.52l-12.26-12.27A17.35,17.35,0,0,0,320.39,577.57Z" transform="translate(-127.74 -67.59)"/><path class="cls-4" d="M764.59,124.39A229.88,229.88,0,0,1,782,144.62a191.29,191.29,0,0,1,37.34,88.95,178.19,178.19,0,0,1,1.94,24.07c0,7.27-3.24,12.76-9.79,15.91s-12.73,2.22-18.3-2.23a16.19,16.19,0,0,1-6.26-12.8,164,164,0,0,0-5-37.23,153.37,153.37,0,0,0-15.92-38.95A159.94,159.94,0,0,0,750.4,160a169.59,169.59,0,0,0-19.61-19.87,156.09,156.09,0,0,0-47.34-28.19,154.48,154.48,0,0,0-40.52-9.22c-4.57-.4-9.18-.39-13.75-.85A16.26,16.26,0,0,1,615,91.36a16.29,16.29,0,0,1,2.38-17.23,16.73,16.73,0,0,1,14.27-6.53,194.06,194.06,0,0,1,33.73,3.67A190.51,190.51,0,0,1,728,95.72a182.52,182.52,0,0,1,22.8,16.36C755.49,116.06,760,120.28,764.59,124.39Z" transform="translate(-127.74 -67.59)"/><path class="cls-4" d="M724,165.06A137.1,137.1,0,0,1,763.89,262c0,7.11-3.33,12.49-9.73,15.58s-12.61,2.29-18.17-2.06a16.35,16.35,0,0,1-6.46-13.37,107.35,107.35,0,0,0-3.45-26.88,101.38,101.38,0,0,0-32-51.18,99.71,99.71,0,0,0-29.6-17.74,102.57,102.57,0,0,0-37.34-6.91,17.21,17.21,0,1,1-.42-34.41,138.27,138.27,0,0,1,41,6.14,135.67,135.67,0,0,1,35.07,16.54A133.22,133.22,0,0,1,724,165.06Z" transform="translate(-127.74 -67.59)"/><path class="cls-4" d="M683.52,205.5a81.14,81.14,0,0,1,23.34,48.4,64.09,64.09,0,0,1,.29,13.28C706,280,691.07,287,680.47,279.7a16.51,16.51,0,0,1-7.59-14.76,47.67,47.67,0,0,0-8-28.12,45.35,45.35,0,0,0-21.6-17.41,48.67,48.67,0,0,0-19.56-3.35,17,17,0,0,1-17.3-14.86,17.17,17.17,0,0,1,16.43-19.52,79.85,79.85,0,0,1,47.22,13A77.53,77.53,0,0,1,683.52,205.5Z" transform="translate(-127.74 -67.59)"/><path class="cls-1" d="M127.74,570v34.41l11,20.69-2.51-38.86s-6.17-7.44-7.07-10.55C128.2,572.3,127.74,570,127.74,570Z" transform="translate(-127.74 -67.59)"/><path class="cls-1" d="M710.18,378v34.91l-9.13,15.42H683.83V412.59s17.9-18,21.28-23.09S709.26,382,710.18,378Z" transform="translate(-127.74 -67.59)"/><path class="cls-2" d="M897.88,452.79h18c18.08,0,22.42,12.32,19.07,29.86l-1.68,8.42c-3.6,18.27-10.46,28.19-32,28.19h-8.85l-12.26,58.16h-8.77Zm-3.76,58.74h8.48c14.87,0,18.86-6.92,21.85-21.11l1.65-8c2.52-11.7,1.93-21.83-12.07-21.83H905Z" transform="translate(-127.74 -67.59)"/><path class="cls-2" d="M943,515.59c3.2-14.82,5.28-25.9,6.4-32.05h8.44a133,133,0,0,1-2.43,13.9c5.22-10.72,14-14.77,21.73-15.08l-2.28,10.31c-12.53.91-20.59,10.87-23.76,26.05l-12.48,58.7h-8.77Z" transform="translate(-127.74 -67.59)"/><path class="cls-2" d="M1023.09,511.72l-8.12,38.7c-4.29,20.68-10.88,28.5-25.73,28.5-13.41,0-21.65-8.24-17.2-29.33l8.52-40.76c3.14-14.74,8.77-26.78,24.92-26.78C1021.05,482.05,1027,492.73,1023.09,511.72Zm-33.57-2.89-8.95,42c-3.06,14.86,2,20.37,9.63,20.37,7.35,0,12.07-3.78,15.44-19.33l8.8-41c2.87-13.24-.11-21.06-9.89-21.06C996,489.78,992.11,496.92,989.52,508.83Z" transform="translate(-127.74 -67.59)"/><path class="cls-2" d="M1054.88,483.54l-22.37,105.07c-2.7,12.92-5.18,21.9-17.56,21.9a36,36,0,0,1-7.21-.68l1.85-8.43a40.52,40.52,0,0,0,4.81.41c4.83,0,6.63-1.11,8.91-11.59l22.8-106.68Zm-4.6-17.92,4-18.39h8.78l-4,18.39Z" transform="translate(-127.74 -67.59)"/><path class="cls-2" d="M1069.78,531.25c-.78,3.45-2.54,12.11-3.48,16.49-2.75,13.14-2.22,23.47,8.35,23.47,9,0,12.07-7.63,14.41-17.93l.56-2.49h8.72l-.69,2.81c-2.83,11.48-6.33,25.32-23.92,25.32-19.42,0-19.23-16.65-15.84-32.76l7.25-34.46c3-14.64,7.79-29.62,25-29.62,19.45,0,19.5,16.7,16.71,29.69-.79,3.61-3.26,15.41-4.2,19.48Zm26-7.61c.63-3.14,2.46-11.41,3.08-14.38,2.22-10.64.12-19.63-9.35-19.63-10.43,0-13.48,12.16-15.28,21l-2.8,13Z" transform="translate(-127.74 -67.59)"/><path class="cls-2" d="M1153.07,551.32l-.56,2.32c-2.42,10.4-6,25.28-23.93,25.28-19,0-18.92-15.78-16-29.7l8.15-38.32c3.55-16.6,8.37-28.85,24.21-28.85,17.8,0,19.45,13.59,17,26l-.94,4.7h-8.68l.84-4.33c2.37-11.77.71-18.66-9-18.66-7.92,0-11.42,6.79-14.48,20.84l-8.42,39.65c-2.71,13-1.71,20.94,8.4,20.94,8.26,0,11-6,13.85-17.24l.64-2.62Z" transform="translate(-127.74 -67.59)"/><path class="cls-2" d="M1172.45,483.54h11l5.41-24.39h8.59l-5.26,24.39h13.64l-1.7,7.83h-13.63l-14.88,68.93c-1.56,7.61-.41,10.78,5.5,10.78a34.71,34.71,0,0,0,7.2-.84l-1.64,7.34a29.32,29.32,0,0,1-8.86,1c-8,0-14-3.76-11.25-16.72l15.12-70.51h-11Z" transform="translate(-127.74 -67.59)"/><path class="cls-2" d="M867.91,753.74V620.48h28.36c4.23,16.26,17.58,76.62,18.64,82.47h.62c-1.42-17.73-2.33-42-2.33-60.58V620.48H937V753.74H908.38c-2.77-12.68-17.34-81.63-18.19-85.9h-.69c1,15.69,1.78,42.19,1.78,63.14v22.76Z" transform="translate(-127.74 -67.59)"/><path class="cls-2" d="M1006,694.88H978.52v36.33h32.21l-3.08,22.53h-54.8V620.48h54.6v22.66H978.52v29.21H1006Z" transform="translate(-127.74 -67.59)"/><path class="cls-2" d="M1019.88,620.48h34.17c22.13,0,33.11,11.71,33.11,35.31v8.14c0,23.34-8.81,37.42-34.09,37.42h-7.52v52.39h-25.67Zm25.67,60.1h4.15c9.73,0,11.78-5.44,11.78-16.54v-9.2c0-8.61-2-14.17-10.56-14.17h-5.37Z" transform="translate(-127.74 -67.59)"/><path class="cls-2" d="M1098.37,620.48H1124v51.29h16.71V620.48h25.81V753.74h-25.81V694.37H1124v59.37h-25.66Z" transform="translate(-127.74 -67.59)"/><path class="cls-2" d="M1249.56,656.13V718c0,26.44-12.44,37.78-35.74,37.78-22.11,0-33.47-11.62-33.47-37.52V655.44c0-25.73,14.14-37,34.66-37S1249.56,629.52,1249.56,656.13Zm-43.29-2.88v68.11c0,8.23,2.82,12.53,8.55,12.53,6,0,8.68-3.9,8.68-12.66V653.05c0-8.33-2.31-12.59-8.75-12.59C1209.29,640.46,1206.27,644.4,1206.27,653.25Z" transform="translate(-127.74 -67.59)"/><path class="cls-2" d="M1284.71,712.67v9.23c0,8.76,2.18,12.83,8,12.83s7.3-6,7.3-12.32c0-12.58-2.37-16.22-16-27.6-15-12.72-22.73-20.25-22.73-39.88,0-19,6.3-36.58,31.55-36.58,26.8,0,30.75,18.28,30.75,33.54v7.67h-24.2v-8c0-8.08-1.32-12.08-6.39-12.08-4.73,0-6.26,4.07-6.26,11.61,0,8,1.46,12,12.48,20.59,19.6,15.4,26.63,24,26.63,46,0,20.87-7.13,38.06-33.6,38.06-25.43,0-32.68-15.34-32.68-35.08v-8Z" transform="translate(-127.74 -67.59)"/><line class="cls-5" x1="686.16" y1="382.48" x2="686.16" y2="686.15"/><g class="cls-6"><path class="cls-2" d="M1327.64,523.64a43.16,43.16,0,0,0-39.61-43l7.24,23.39h-10.52l-7.79,29h-13.74l7.79-29h-10.53l19.73-23.34a43.17,43.17,0,0,0,.69,86l-7.23-23.39h10.52l7.78-29h13.74l-7.78,29h10.52l-19.73,23.34A43.16,43.16,0,0,0,1327.64,523.64Z" transform="translate(-127.74 -67.59)"/><path class="cls-2" d="M1284.47,584.61a61,61,0,1,1,61-61A61,61,0,0,1,1284.47,584.61Zm0-115.21a54.24,54.24,0,1,0,54.23,54.24A54.3,54.3,0,0,0,1284.47,469.4Z" transform="translate(-127.74 -67.59)"/></g></g></svg>